
<svg width="104px" height="100px" viewBox="0 0 104 100" version="1.1" xmlns="http://www.w3.org/2000/svg" xmlns:xlink="http://www.w3.org/1999/xlink">
    <!-- Generator: Sketch 44.1 (41455) - http://www.bohemiancoding.com/sketch -->
    <desc>Created with Sketch.</desc>
    <defs>
        <polygon id="path-1" points="0.244943284 15.0085707 10.5898905 15.0085707 10.5898905 0.350527756 0.244943284 0.350527756"></polygon>
        <polygon id="path-3" points="0 98.8495517 103.724219 98.8495517 103.724219 0.109717827 0 0.109717827"></polygon>
    </defs>
    <g id="Page-5" stroke="none" stroke-width="1" fill="none" fill-rule="evenodd">
        <g id="Desktop-HD-Copy-24" transform="translate(-668.000000, -24.000000)">
            <g id="Page-1" transform="translate(668.000000, 24.000000)">
                <g id="Group-72" transform="translate(0.000000, 0.407819)">
                    <path d="M20.2836219,80.0275102 C20.2836219,79.3122742 20.8724378,78.7026157 21.608199,78.7026157 C22.3227463,78.7026157 22.9332935,79.2915727 22.9332935,80.0482117 C22.9332935,80.7215272 22.3863881,81.3524047 21.608199,81.3524047 C20.8931343,81.3524047 20.2836219,80.8265872 20.2836219,80.0275102 Z M19.1908458,92.9400564 L20.6623682,92.6667969 L20.8724378,91.0681253 L20.8724378,86.7358238 L20.6623682,85.1169683 L18.9797413,84.8431913 L18.9797413,84.1910947 L22.8908657,83.8132928 L22.680796,86.7358238 L22.680796,91.0681253 L22.8908657,92.6667969 L24.3623881,92.9400564 L24.3623881,93.5921529 L19.1908458,93.5921529 L19.1908458,92.9400564 Z" id="Fill-2" fill="#000000"></path>
                    <path d="M31.8573731,91.2788146 L31.8573731,85.053363 C31.2685572,84.8013225 30.80599,84.675561 30.1540498,84.675561 C28.1775323,84.675561 27.0842388,86.3156355 27.0842388,88.9022851 C27.0842388,91.1944561 27.9255522,92.5824901 29.5652338,92.5824901 C30.3015124,92.5824901 31.0797015,92.2460911 31.8573731,91.2788146 M25.1915423,89.3442616 C25.1915423,86.0630775 27.2529154,83.7496875 30.2383881,83.7496875 C30.8266866,83.7496875 31.2897711,83.8133445 31.8573731,83.939106 L31.8573731,81.4787355 L31.6255721,79.8588449 L29.9439801,79.586103 L29.9439801,78.9340065 L33.875801,78.5551694 L33.644,81.4787355 L33.644,91.0681771 L33.875801,92.6668486 L35.2422886,92.9401081 L35.2422886,93.5922046 L31.8573731,94.0336636 L32.1724776,92.0359711 C31.2054328,93.3396466 30.2176915,94.0336636 28.8294726,94.0336636 C26.70601,94.0336636 25.1915423,92.2041706 25.1915423,89.3442616" id="Fill-4" fill="#000000"></path>
                    <path d="M42.6665433,91.2788146 L42.6665433,85.053363 C42.0777274,84.8013225 41.6151602,84.675561 40.9632199,84.675561 C38.9867025,84.675561 37.893409,86.3156355 37.893409,88.9022851 C37.893409,91.1944561 38.7347224,92.5824901 40.374404,92.5824901 C41.1106826,92.5824901 41.8888716,92.2460911 42.6665433,91.2788146 M36.0007124,89.3442616 C36.0007124,86.0630775 38.0620856,83.7496875 41.0475582,83.7496875 C41.6358567,83.7496875 42.0989413,83.8133445 42.6665433,83.939106 L42.6665433,81.4787355 L42.4347423,79.8588449 L40.7531502,79.586103 L40.7531502,78.9340065 L44.6849711,78.5551694 L44.4531701,81.4787355 L44.4531701,91.0681771 L44.6849711,92.6668486 L46.0514587,92.9401081 L46.0514587,93.5922046 L42.6665433,94.0336636 L42.9816478,92.0359711 C42.014603,93.3396466 41.0268617,94.0336636 39.6386428,94.0336636 C37.5151801,94.0336636 36.0007124,92.2041706 36.0007124,89.3442616" id="Fill-6" fill="#000000"></path>
                    <polygon id="Fill-8" fill="#000000" points="47.3787781 92.9399529 48.8503005 92.6666934 49.0821015 91.0680218 49.0821015 81.4785802 48.8503005 79.8592072 47.1687085 79.5859477 47.1687085 78.9338512 51.0798328 78.5550142 50.8687284 81.4785802 50.8687284 91.0680218 51.1005294 92.6666934 52.5513552 92.9399529 52.5513552 93.5920494 47.3787781 93.5920494"></polygon>
                    <path d="M57.8886766,87.3251948 L59.3177711,87.1145573 C59.3177711,85.4532638 58.5395821,84.5910473 57.3836816,84.5910473 C56.2060498,84.5910473 55.3864677,85.4744828 55.1546667,87.3251948 L57.8886766,87.3251948 Z M53.3049154,88.9864883 C53.3049154,85.7901803 54.9239005,83.7495322 57.5518408,83.7495322 C59.7596418,83.7495322 61.2942886,85.1800043 61.2104677,88.1661923 L55.1339701,88.1661923 C55.1339701,88.1661923 55.1132736,88.4606708 55.1132736,88.6288703 C55.1132736,91.0053999 56.2696915,92.6879124 58.4981891,92.6879124 C59.1708259,92.6879124 59.927801,92.5197129 60.6630448,91.9726764 L61.0842189,92.5404144 C59.8853731,93.6344874 58.9814527,94.0335084 57.4675025,94.0335084 C54.9658109,94.0335084 53.3049154,92.2252344 53.3049154,88.9864883 L53.3049154,88.9864883 Z" id="Fill-10" fill="#000000"></path>
                    <path d="M69.839208,88.8182888 C69.839208,86.6523968 68.9135562,85.1800043 67.5056756,85.1800043 C66.6436657,85.1800043 65.8230488,85.5371048 65.0660736,86.4205403 L65.0660736,91.0680218 L65.2761433,92.8980324 C65.7816557,93.0662319 66.1381532,93.1505904 66.6850587,93.1505904 C68.8514667,93.1505904 69.839208,91.2160374 69.839208,88.8182888 M63.2577154,93.5920494 L63.2577154,81.4785802 L63.0476458,79.8592072 L61.3660537,79.5859477 L61.3660537,78.9338512 L65.2761433,78.5550142 L65.0660736,81.4785802 L65.0660736,85.4320448 C65.8442627,84.4016288 66.9794667,83.7495322 68.2626507,83.7495322 C70.2810786,83.7495322 71.6894766,85.4744828 71.6894766,88.1454908 C71.6894766,91.4049384 69.7341731,94.0335084 65.9492975,94.0335084 C65.0660736,94.0335084 64.4565612,94.0335084 63.2577154,93.5920494" id="Fill-12" fill="#000000"></path>
                    <path d="M74.1287164,90.7529971 L74.1287164,86.7358755 L73.8969154,85.11702 L72.2572338,84.843243 L72.2572338,84.1911465 L76.1471443,83.8133445 L75.9360398,86.7358755 L75.9360398,90.2691001 C75.9360398,91.7202736 76.609194,92.6037091 77.9337711,92.6037091 C78.838209,92.6037091 79.657791,92.0566726 80.246607,91.3419541 L80.246607,86.7358755 L80.0365373,85.11702 L78.3963383,84.843243 L78.3963383,84.1911465 L82.2857313,83.8133445 L82.0549652,86.7358755 L82.0549652,91.0681771 L82.2857313,92.6668486 L83.7996816,92.9401081 L83.7996816,93.5922046 L80.246607,93.9705241 L80.478408,92.0778916 C79.4896318,93.4447066 78.606408,94.0336636 77.1141891,94.0336636 C75.263403,94.0336636 74.1287164,92.8562671 74.1287164,90.7529971" id="Fill-14" fill="#000000"></path>
                    <g id="Group-18" transform="translate(93.134328, 83.840981)">
                        <mask id="mask-2" fill="white">
                            <use xlink:href="#path-1"></use>
                        </mask>
                        <g id="Clip-17"></g>
                        <polygon id="Fill-16" fill="#000000" mask="url(#mask-2)" points="1.08625672 14.7354664 1.08625672 14.0202304 3.18902289 13.6838314 4.09242587 12.2114389 4.99738109 10.0874674 2.05330149 2.89525679 1.19129154 1.25466475 0.244943284 1.00262427 0.244943284 0.350527756 4.84991841 0.350527756 4.84991841 1.00262427 3.50412736 1.25466475 4.00912239 2.89525679 5.90078408 7.75285832 7.66774925 2.89525679 8.129799 1.25466475 6.8057393 1.00262427 6.8057393 0.350527756 10.5900975 0.350527756 10.5900975 1.00262427 9.5175005 1.25466475 8.71913234 2.89525679 4.13537114 15.0087259"></polygon>
                    </g>
                    <path d="M91.4147582,84.0320039 C90.2210866,84.0320039 89.279395,84.7001441 88.3992756,86.1813347 C88.3966886,86.1585631 88.3925493,86.1357915 88.3915144,86.1135374 L88.3946189,85.8677073 C88.4013453,85.7610947 88.4137632,85.6539646 88.4256637,85.547352 C88.4525692,85.3134253 88.4789572,85.0800162 88.5053453,84.8460895 C88.5441512,84.5045151 88.5829572,84.1629407 88.6217632,83.8218839 L84.9253652,84.1991683 L84.9253652,84.8507473 L86.6059224,85.1240068 L86.8366886,86.7407921 L86.8366886,91.0679183 L86.6059224,92.6645197 L85.1359522,92.9377792 L85.1359522,93.5888407 L90.5320517,93.5888407 L90.5320517,92.9377792 L88.8525294,92.6645197 L88.6217632,91.0679183 L88.6217632,90.56539 L88.6217632,89.19961 L88.6217632,87.6832269 L88.6217632,87.2671272 L88.6217632,87.0953049 C88.6217632,87.068393 88.6238328,87.0394109 88.6259025,87.0104289 C89.2338627,86.2574126 90.0503403,85.9857058 90.6795144,85.9857058 C91.1208677,85.9857058 91.5611861,86.1326862 91.9187184,86.3003682 L92.4438925,84.1789844 C92.0025393,84.0527054 91.7929871,84.0320039 91.4147582,84.0320039" id="Fill-19" fill="#000000"></path>
                    <path d="M22.9826547,1.62527294 L22.9826547,30.8355742 C22.9831721,30.8847402 23.0535403,36.1279068 26.6697393,43.0013146 C29.987391,49.3064669 37.0500776,58.3085041 51.8786149,65.5043374 C66.7190527,58.3053989 73.7734607,49.3049143 77.0807642,42.999762 C80.6855801,36.1279068 80.7414607,30.8868104 80.7414607,30.8350567 L80.7414607,1.62527294 L22.9826547,1.62527294 Z M51.8786149,67.1858149 L51.5510925,67.0284836 C36.0742368,59.6028639 28.7228338,50.1987006 25.2815204,43.616666 C21.5256199,36.432736 21.4681871,31.0627729 21.4676697,30.8381619 L21.4676697,0.109924842 L82.2564458,0.109924842 L82.2564458,30.8355742 C82.2564458,31.0607028 82.2145353,36.4301483 78.4689831,43.6135608 C75.0380179,50.1950778 67.6964458,59.5997587 52.2061373,67.0284836 L51.8786149,67.1858149 Z" id="Fill-21" fill="#000000"></path>
                    <path d="M40.9258109,11.5294805 C40.241791,10.6129226 39.3321791,9.87595003 38.2745871,9.40757911 C38.6797214,9.99291337 39.0206965,10.7117722 39.2835423,11.5294805 L40.9258109,11.5294805 Z" id="Fill-23" fill="#000000"></path>
                    <path d="M36.1496756,8.97750593 L36.1496756,11.5294805 L38.0920438,11.5294805 C37.6015363,10.1942352 36.8895761,9.28906316 36.1496756,8.97750593" id="Fill-25" fill="#000000"></path>
                    <path d="M32.4410149,14.9416014 L35.013592,14.9416014 L35.013592,12.6659916 L32.7359403,12.6659916 C32.5776119,13.3522455 32.4741294,14.1150949 32.4410149,14.9416014" id="Fill-27" fill="#000000"></path>
                    <path d="M33.0712239,11.5294805 L35.013592,11.5294805 L35.013592,8.9769884 C34.2736915,9.28802809 33.5612139,10.1937177 33.0712239,11.5294805" id="Fill-29" fill="#000000"></path>
                    <path d="M32.7361473,18.3544469 L35.0132816,18.3544469 L35.0132816,16.0783195 L32.4412219,16.0783195 C32.4738189,16.9048259 32.5773015,17.6676754 32.7361473,18.3544469" id="Fill-31" fill="#000000"></path>
                    <path d="M35.0134368,22.0429325 L35.0134368,19.4909579 L33.0715861,19.4909579 C33.5615761,20.8267207 34.2735363,21.7318928 35.0134368,22.0429325" id="Fill-33" fill="#000000"></path>
                    <path d="M31.3054488,16.0781125 L28.9372498,16.0781125 C29.0060657,16.8870227 29.2218269,17.6524598 29.5534886,18.3542398 L31.5796776,18.3542398 C31.4296279,17.6431441 31.3359761,16.8797772 31.3054488,16.0781125" id="Fill-35" fill="#000000"></path>
                    <path d="M38.4269652,12.6659916 L36.1498308,12.6659916 L36.1498308,14.9416014 L38.722408,14.9416014 C38.6892935,14.1150949 38.5858109,13.3522455 38.4269652,12.6659916" id="Fill-37" fill="#000000"></path>
                    <path d="M31.5792119,12.6659916 L29.5535403,12.6659916 C29.2213612,13.3672541 29.0061174,14.1326912 28.9373015,14.9416014 L31.3055005,14.9416014 C31.3360279,14.1404542 31.4296796,13.3770873 31.5792119,12.6659916" id="Fill-39" fill="#000000"></path>
                    <path d="M30.2380259,19.4909579 C30.9220458,20.4069983 31.8311403,21.1429358 32.8876975,21.6118242 C32.4830806,21.02649 32.1426229,20.3076312 31.8797771,19.4909579 L30.2380259,19.4909579 Z" id="Fill-41" fill="#000000"></path>
                    <path d="M39.8579741,14.9416014 L42.2256557,14.9416014 C42.1573572,14.1326912 41.9421134,13.3672541 41.6099343,12.6659916 L39.5837453,12.6659916 C39.7332776,13.3770873 39.8274468,14.1404542 39.8579741,14.9416014" id="Fill-43" fill="#000000"></path>
                    <path d="M32.8874388,9.40809665 C31.8308816,9.8769851 30.9217871,10.6129226 30.2377672,11.5294805 L31.8795184,11.5294805 C32.1423642,10.7122897 32.4833393,9.99394844 32.8874388,9.40809665" id="Fill-45" fill="#000000"></path>
                    <path d="M39.5835383,18.3544469 L41.6097274,18.3544469 C41.9419065,17.6526668 42.1576677,16.8872297 42.2259662,16.0783195 L39.8577672,16.0783195 C39.8272398,16.8799842 39.7335881,17.6428336 39.5835383,18.3544469" id="Fill-47" fill="#000000"></path>
                    <path d="M75.1336358,18.9626563 L67.8515662,23.234406 L60.5643224,18.9626563 L60.5643224,10.7157054 L61.7005612,10.7157054 L61.7005612,18.3115948 L67.8515662,21.9172745 L73.997397,18.3115948 L73.997397,10.7157054 L75.1336358,10.7157054 L75.1336358,18.9626563 Z M62.8466308,9.99425897 C62.8466308,9.99425897 65.8771184,10.043425 67.2384318,12.5503738 L67.2384318,20.1674822 C65.8771184,17.6610509 62.8466308,17.6118849 62.8466308,17.6118849 C62.8466308,17.6118849 62.8026507,9.94509296 62.8466308,9.99425897 L62.8466308,9.99425897 Z M68.3674269,12.6155835 C69.7432279,10.1091522 72.805795,10.0605037 72.805795,10.0605037 C72.85081,10.0108201 72.805795,17.6776121 72.805795,17.6776121 C72.805795,17.6776121 69.7432279,17.7262605 68.3674269,20.2332094 L68.3674269,12.6155835 Z M58.4548299,24.3584962 L45.269596,24.3584962 L45.269596,23.0325666 L47.2662925,23.0325666 L47.2662925,16.5136715 L56.4570985,16.5136715 L56.4570985,23.0325666 L58.4548299,23.0325666 L58.4548299,24.3584962 Z M35.5820736,23.3213522 C31.2756458,23.3213522 27.7722428,19.8171097 27.7722428,15.5096499 C27.7722428,11.2021901 31.2756458,7.69846519 35.5820736,7.69846519 C39.8879841,7.69846519 43.3908697,11.2021901 43.3908697,15.5096499 C43.3908697,19.8171097 39.8879841,23.3213522 35.5820736,23.3213522 L35.5820736,23.3213522 Z M52.5247602,3.47743407 L52.5247602,4.23407305 C53.1027104,4.48197323 53.5104318,5.03315005 53.5104318,5.68214135 C53.5104318,6.33061511 53.1027104,6.88127439 52.5247602,7.12865704 L52.5247602,8.04832015 C53.3929791,8.36608782 54.9597055,9.12583201 55.6763224,10.6691271 C56.3468896,12.1146077 56.4695164,13.366012 56.4762428,14.0512309 L57.0935164,14.0512309 L57.0935164,15.3771605 L46.6309095,15.3771605 L46.6309095,14.0512309 L47.2481831,14.0512309 C47.2549095,13.366012 47.3780537,12.1146077 48.0486209,10.6691271 C48.7631682,9.12893724 50.3298945,8.36608782 51.1991483,8.04728507 L51.1991483,7.1281395 C50.6217154,6.88075686 50.213994,6.33061511 50.213994,5.68214135 C50.213994,5.03315005 50.6217154,4.48300831 51.1991483,4.23510812 L51.1991483,3.47743407 L25.1888,3.47743407 L25.1888,30.0265605 C25.1888,30.0265605 25.1929393,31.2210357 25.5882428,33.2083775 C25.6337751,33.1928514 25.6798249,33.1773253 25.7253572,33.1617992 C28.5690587,32.1903824 33.7007602,30.5259836 37.0991284,30.5259836 C40.4974965,30.5259836 41.7460139,31.427533 45.0057154,31.427533 C45.3813572,31.427533 45.7440637,31.4358136 46.1000438,31.4482344 L46.1000438,25.4867267 L57.6243821,25.4867267 L57.6243821,31.6438634 C59.9330786,31.5739959 61.6524418,31.6412757 63.731407,32.0175251 C66.6097751,32.5376497 68.3782925,34.4106158 70.4236259,34.7226905 C72.469994,35.0352828 74.2726607,34.5839906 76.4576955,34.6885331 C77.0206408,34.7149275 77.4304318,34.7340763 77.7946905,34.7511551 C78.5340736,31.8529483 78.5356259,30.0265605 78.5356259,30.0265605 L78.5356259,3.47743407 L52.5247602,3.47743407 Z" id="Fill-49" fill="#000000"></path>
                    <path d="M38.7224597,16.0781125 L36.1498826,16.0781125 L36.1498826,18.3542398 L38.4270169,18.3542398 C38.5858627,17.6679859 38.6893453,16.9051365 38.7224597,16.0781125" id="Fill-51" fill="#000000"></path>
                    <path d="M36.1496756,22.0425702 C36.8895761,21.7304955 37.6015363,20.8258409 38.0915264,19.4911132 L36.1496756,19.4911132 L36.1496756,22.0425702 Z" id="Fill-53" fill="#000000"></path>
                    <path d="M38.2745871,21.61229 C39.3316617,21.1439191 40.241791,20.4074641 40.9252935,19.4909062 L39.2835423,19.4909062 C39.0201791,20.308097 38.6797214,21.0269558 38.2745871,21.61229" id="Fill-55" fill="#000000"></path>
                    <mask id="mask-4" fill="white">
                        <use xlink:href="#path-3"></use>
                    </mask>
                    <g id="Clip-58"></g>
                    <polygon id="Fill-57" fill="#000000" mask="url(#mask-4)" points="50.6340299 30.9145504 53.0907065 30.9145504 53.0907065 26.662467 50.6340299 26.662467"></polygon>
                    <path d="M50.2032318,50.985926 C50.0159284,50.8363578 49.7241075,50.6862721 49.2377393,50.4839152 C48.8703761,50.6790266 48.6080478,50.9786804 48.6080478,51.4128939 C48.6080478,51.9371588 48.9826547,52.2745929 49.5673313,52.2745929 C50.0909532,52.2745929 50.4505552,51.967176 50.4505552,51.5251994 C50.4505552,51.2933429 50.368804,51.11324 50.2032318,50.985926" id="Fill-59" fill="#000000" mask="url(#mask-4)"></path>
                    <path d="M49.5741095,49.7872587 C49.9037015,49.6221644 50.2933134,49.3602907 50.2933134,48.9483314 C50.2933134,48.5513805 50.0014925,48.3112434 49.499602,48.3112434 C49.0199602,48.3112434 48.7053731,48.5736346 48.7053731,48.9628224 C48.7053731,49.3980709 49.2222687,49.644936 49.5741095,49.7872587" id="Fill-60" fill="#000000" mask="url(#mask-4)"></path>
                    <path d="M53.7318328,48.3337045 C53.4394945,48.3337045 53.2149373,48.5665961 53.0726488,48.9630294 C52.9531264,49.2854549 52.9003502,49.7124229 52.9003502,50.2439333 C52.9003502,50.7459441 52.937604,51.1361669 53.0048677,51.4130492 C53.1399124,51.9973484 53.4094846,52.244731 53.7240716,52.244731 C54.0386587,52.244731 54.2927085,51.9750943 54.4282706,51.5403633 C54.5255443,51.2184553 54.5705592,50.7914873 54.5705592,50.2894765 C54.5705592,49.8019568 54.5327881,49.4655578 54.4582806,49.1426147 C54.315992,48.5588331 54.0609075,48.3337045 53.7318328,48.3337045" id="Fill-61" fill="#000000" mask="url(#mask-4)"></path>
                    <path d="M57.9104597,52.8590473 C56.592609,52.8590473 56.1729871,51.3229978 56.1729871,50.2516963 C56.1729871,48.775681 56.922201,47.7121427 57.9187383,47.7121427 C59.2593552,47.7121427 59.6784597,49.188158 59.6784597,50.2739504 C59.6784597,51.8250086 58.9597731,52.8590473 57.9104597,52.8590473 L57.9104597,52.8590473 Z M53.7168279,52.8590473 C52.3984597,52.8590473 51.9788378,51.3229978 51.9788378,50.2516963 C51.9788378,48.775681 52.7280517,47.7121427 53.7240716,47.7121427 C55.0646886,47.7121427 55.4843104,49.188158 55.4843104,50.2739504 C55.4843104,51.8250086 54.7651065,52.8590473 53.7168279,52.8590473 L53.7168279,52.8590473 Z M49.48439,52.8890645 C48.6234149,52.8890645 47.7169075,52.4620965 47.7169075,51.4725659 C47.7169075,50.8665302 48.1215244,50.3790104 48.6751562,50.1844165 C48.218798,49.9975857 47.874201,49.5400831 47.874201,49.0380723 C47.874201,48.0868394 48.7579423,47.7121427 49.5739025,47.7121427 C50.5181811,47.7121427 51.1701214,48.2141535 51.1701214,48.9480208 C51.1701214,49.5623372 50.6904796,49.9070167 50.1730667,50.1016106 C50.9000318,50.4012645 51.3569075,50.7609527 51.3569075,51.383032 C51.3569075,52.349791 50.3458826,52.8890645 49.48439,52.8890645 L49.48439,52.8890645 Z M46.9904597,52.7467418 L44.6160517,52.7467418 L44.6160517,52.0801543 L45.4847881,52.0801543 L45.4847881,48.753427 C45.4102806,48.7989702 45.1774448,48.9480208 44.9756537,49.0453178 C44.7733453,49.1426147 44.4960119,49.2626833 44.4059821,49.2927004 L44.204191,48.8507239 L45.7098627,47.794431 L46.2935045,47.794431 L46.2935045,52.0801543 L46.9904597,52.0801543 L46.9904597,52.7467418 Z M59.5325493,41.583988 L59.5325493,41.6098648 L44.2186786,41.6098648 L33.1217234,48.5640084 C37.0747582,53.3998734 42.9939622,58.4422356 51.8670766,62.6927664 C60.7603701,58.4344726 66.6842308,53.3822772 70.6331264,48.5391667 L59.5325493,41.583988 Z" id="Fill-62" fill="#000000" mask="url(#mask-4)"></path>
                    <path d="M57.9255682,48.3337045 C57.6332299,48.3337045 57.4086726,48.5665961 57.2663841,48.9630294 C57.1468617,49.2854549 57.0940856,49.7124229 57.0940856,50.2439333 C57.0940856,50.7459441 57.1313393,51.1361669 57.1991204,51.4130492 C57.3336478,51.9973484 57.6032199,52.244731 57.9183244,52.244731 C58.232394,52.244731 58.4874786,51.9750943 58.622006,51.5403633 C58.719797,51.2184553 58.7642945,50.7914873 58.7642945,50.2894765 C58.7642945,49.8019568 58.7270408,49.4655578 58.6520159,49.1426147 C58.5097274,48.5588331 58.2551602,48.3337045 57.9255682,48.3337045" id="Fill-63" fill="#000000" mask="url(#mask-4)"></path>
                    <polygon id="Fill-64" fill="#000000" mask="url(#mask-4)" points="43.9557811 33.9069488 59.7684378 33.9069488 59.7684378 32.7704378 43.9557811 32.7704378"></polygon>
                    <path d="M47.0447363,38.9539689 L56.68,38.9539689 L56.68,36.6514471 L47.0447363,36.6514471 L47.0447363,38.9539689 Z M45.9084975,40.09048 L57.8162388,40.09048 L57.8162388,35.514936 L45.9084975,35.514936 L45.9084975,40.09048 Z" id="Fill-65" fill="#000000" mask="url(#mask-4)"></path>
                    <polygon id="Fill-66" fill="#000000" mask="url(#mask-4)" points="50.6340299 21.5911228 53.0907065 21.5911228 53.0907065 17.7758406 50.6340299 17.7758406"></polygon>
                    <polygon id="Fill-67" fill="#000000" mask="url(#mask-4)" points="48.5535124 21.5895701 49.311005 21.5895701 49.311005 17.782051 48.5535124 17.782051"></polygon>
                    <polygon id="Fill-68" fill="#000000" mask="url(#mask-4)" points="54.4126965 21.5895701 55.1701891 21.5895701 55.1701891 17.782051 54.4126965 17.782051"></polygon>
                    <path d="M52.5837453,5.68302116 C52.5837453,6.05978804 52.2608796,6.36513482 51.8624716,6.36513482 C51.4635463,6.36513482 51.1406806,6.05978804 51.1406806,5.68302116 C51.1406806,5.30418414 51.4635463,4.99780228 51.8624716,4.99780228 C52.2608796,4.99780228 52.5837453,5.30418414 52.5837453,5.68302116" id="Fill-69" fill="#000000" mask="url(#mask-4)"></path>
                    <path d="M44.1917731,37.4909438 L31.0458627,45.7824028 C31.3257831,46.1917745 31.6191562,46.6037338 31.9264995,47.0182809 L44.1917731,39.2826566 L44.1917731,37.4909438 Z" id="Fill-70" fill="#000000" mask="url(#mask-4)"></path>
                    <path d="M59.5315662,39.3466241 L71.7751085,47.0863888 C72.0829692,46.6723592 72.3773771,46.2603999 72.6578149,45.8515457 L59.5315662,37.5543938 L59.5315662,39.3466241 Z" id="Fill-71" fill="#000000" mask="url(#mask-4)"></path>
                    <polygon id="Fill-1" fill="#000000" mask="url(#mask-4)" points="13.0360119 79.8381435 12.0472358 82.90869 8.78908657 91.1944561 5.6142408 82.9293915 4.54112637 79.8381435 -0.000206965174 79.8381435 -0.000206965174 80.469021 1.70363383 80.80542 1.91370348 82.9293915 1.91370348 90.4792201 1.70363383 92.6031916 -0.000206965174 92.9401081 -0.000206965174 93.5922046 4.77292736 93.5922046 4.77292736 92.9401081 3.09081791 92.6031916 2.85953433 90.4792201 2.85953433 81.2686155 6.49694726 90.4792201 7.63266866 93.5922046 8.99915622 93.5922046 10.0717532 90.4792201 13.6879522 81.2686155 13.6879522 90.4792201 13.4561512 92.6031916 11.7745592 92.9401081 11.7745592 93.5922046 17.5773453 93.5922046 17.5773453 92.9401081 15.8947184 92.6031916 15.6639522 90.4792201 15.6639522 82.9293915 15.8947184 80.80542 17.5773453 80.469021 17.5773453 79.8381435"></polygon>
                </g>
            </g>
        </g>
    </g>
</svg>
