<svg xmlns="http://www.w3.org/2000/svg" xmlns:xlink="http://www.w3.org/1999/xlink" viewBox="0 0 104 100"><defs><path id="path-1" d="M.245 15.009H10.59V.35H.245z"/><path id="path-3" d="M0 98.85h103.724V.11H0z"/></defs><g id="Page-5" stroke="none" stroke-width="1" fill="none" fill-rule="evenodd"><g id="Desktop-HD-Copy-24" transform="translate(-668 -24)"><g id="Page-1" transform="translate(668 24)"><g id="Group-72" transform="translate(0 .408)"><path d="M20.284 80.028c0-.716.588-1.325 1.324-1.325.715 0 1.325.589 1.325 1.345 0 .674-.547 1.304-1.325 1.304-.715 0-1.324-.525-1.324-1.324zM19.19 92.94l1.471-.273.21-1.599v-4.332l-.21-1.619-1.682-.274v-.652l3.91-.378-.21 2.923v4.332l.21 1.599 1.472.273v.652H19.19v-.652z" id="Fill-2" fill="#000"/><path d="M31.857 91.279v-6.226c-.588-.252-1.051-.377-1.703-.377-1.976 0-3.07 1.64-3.07 4.226 0 2.292.842 3.68 2.481 3.68.737 0 1.515-.336 2.292-1.303m-6.665-1.935c0-3.28 2.06-5.594 5.046-5.594a6.98 6.98 0 011.62.19v-2.461l-.232-1.62-1.682-.273v-.652l3.932-.379-.232 2.924v9.59l.232 1.598 1.366.273v.652l-3.385.442.315-1.998c-.967 1.304-1.954 1.998-3.343 1.998-2.123 0-3.637-1.83-3.637-4.69" id="Fill-4" fill="#000"/><path d="M42.667 91.279v-6.226c-.59-.252-1.052-.377-1.704-.377-1.976 0-3.07 1.64-3.07 4.226 0 2.292.842 3.68 2.481 3.68.737 0 1.515-.336 2.293-1.303M36 89.344c0-3.28 2.061-5.594 5.047-5.594a6.98 6.98 0 011.619.19v-2.461l-.232-1.62-1.682-.273v-.652l3.932-.379-.232 2.924v9.59l.232 1.598 1.366.273v.652l-3.384.442.315-1.998c-.967 1.304-1.955 1.998-3.343 1.998-2.124 0-3.638-1.83-3.638-4.69" id="Fill-6" fill="#000"/><path id="Fill-8" fill="#000" d="M47.379 92.94l1.471-.273.232-1.599v-9.59l-.232-1.619-1.681-.273v-.652l3.91-.379-.21 2.924v9.589l.232 1.599 1.45.273v.652H47.38z"/><path d="M57.889 87.325l1.429-.21c0-1.662-.778-2.524-1.934-2.524-1.178 0-1.998.883-2.23 2.734h2.735zm-4.584 1.661c0-3.196 1.619-5.236 4.247-5.236 2.208 0 3.742 1.43 3.658 4.416h-6.076s-.02.295-.02.463c0 2.376 1.156 4.059 3.384 4.059a3.54 3.54 0 002.165-.715l.421.567c-1.199 1.094-2.103 1.494-3.616 1.494-2.502 0-4.163-1.809-4.163-5.048z" id="Fill-10" fill="#000"/><path d="M69.84 88.818c0-2.166-.926-3.638-2.334-3.638-.862 0-1.683.357-2.44 1.24v4.648l.21 1.83c.506.168.862.253 1.41.253 2.165 0 3.153-1.935 3.153-4.333m-6.581 4.774V81.479l-.21-1.62-1.682-.273v-.652l3.91-.379-.21 2.924v3.953c.778-1.03 1.913-1.682 3.197-1.682 2.018 0 3.426 1.724 3.426 4.395 0 3.26-1.955 5.889-5.74 5.889-.883 0-1.492 0-2.691-.442" id="Fill-12" fill="#000"/><path d="M74.129 90.753v-4.017l-.232-1.619-1.64-.274v-.652l3.89-.378-.211 2.923v3.533c0 1.451.673 2.335 1.998 2.335.904 0 1.724-.547 2.313-1.262v-4.606l-.21-1.619-1.64-.274v-.652l3.889-.378-.231 2.923v4.332l.23 1.599 1.515.273v.652l-3.553.379.231-1.893c-.988 1.367-1.872 1.956-3.364 1.956-1.85 0-2.985-1.178-2.985-3.281" id="Fill-14" fill="#000"/><g id="Group-18" transform="translate(93.134 83.841)"><mask id="mask-2" fill="#fff"><use xlink:href="#path-1"/></mask><path id="Fill-16" fill="#000" mask="url(#mask-2)" d="M1.086 14.735v-.715l2.103-.336.903-1.473.905-2.124-2.944-7.192-.862-1.64-.946-.252V.35H4.85v.652l-1.346.252.505 1.64 1.892 4.858 1.767-4.858.462-1.64-1.324-.252V.35h3.784v.652l-1.072.252-.799 1.64L4.135 15.01z"/></g><path d="M91.415 84.032c-1.194 0-2.136.668-3.016 2.15-.002-.023-.006-.046-.007-.068l.003-.246c.006-.107.019-.214.03-.32a6048.55 6048.55 0 01.196-1.725l-3.696.376v.652l1.68.273.232 1.617v4.327l-.231 1.597-1.47.273v.65h5.396v-.65l-1.68-.273-.23-1.597v-3.973c0-.027.002-.056.004-.085.608-.753 1.424-1.024 2.054-1.024.44 0 .881.147 1.239.314l.525-2.121a3.115 3.115 0 00-1.03-.147" id="Fill-19" fill="#000"/><path d="M22.983 1.625v29.21c0 .05.07 5.293 3.687 12.166 3.317 6.305 10.38 15.308 25.209 22.503C66.719 58.305 73.773 49.304 77.08 43c3.605-6.872 3.66-12.113 3.66-12.165V1.625H22.983zm28.896 65.56l-.328-.157c-15.477-7.425-22.828-16.83-26.27-23.411-3.755-7.184-3.813-12.554-3.813-12.779V.11h60.788v30.726c0 .225-.041 5.594-3.787 12.778-3.431 6.581-10.773 15.986-26.263 23.414l-.327.158z" id="Fill-21" fill="#000"/><path d="M40.926 11.53a6.699 6.699 0 00-2.651-2.122c.405.585.746 1.304 1.009 2.121h1.642z" id="Fill-23" fill="#000"/><path d="M36.15 8.978v2.551h1.942c-.49-1.335-1.202-2.24-1.942-2.551" id="Fill-25" fill="#000"/><path d="M32.441 14.942h2.573v-2.276h-2.278a12.35 12.35 0 00-.295 2.276" id="Fill-27" fill="#000"/><path d="M33.071 11.53h1.943V8.976c-.74.311-1.453 1.217-1.943 2.552" id="Fill-29" fill="#000"/><path d="M32.736 18.354h2.277v-2.276h-2.572c.033.827.136 1.59.295 2.276" id="Fill-31" fill="#000"/><path d="M35.013 22.043V19.49h-1.941c.49 1.336 1.202 2.24 1.941 2.552" id="Fill-33" fill="#000"/><path d="M31.305 16.078h-2.368c.07.809.285 1.574.616 2.276h2.027a13.545 13.545 0 01-.275-2.276" id="Fill-35" fill="#000"/><path d="M38.427 12.666H36.15v2.276h2.572a12.304 12.304 0 00-.295-2.276" id="Fill-37" fill="#000"/><path d="M31.58 12.666h-2.026a6.614 6.614 0 00-.617 2.276h2.369a13.6 13.6 0 01.273-2.276" id="Fill-39" fill="#000"/><path d="M30.238 19.491a6.708 6.708 0 002.65 2.12c-.405-.585-.745-1.303-1.008-2.12h-1.642z" id="Fill-41" fill="#000"/><path d="M39.858 14.942h2.368a6.602 6.602 0 00-.616-2.276h-2.026a13.6 13.6 0 01.274 2.276" id="Fill-43" fill="#000"/><path d="M32.887 9.408a6.704 6.704 0 00-2.65 2.121h1.643c.262-.817.603-1.535 1.007-2.12" id="Fill-45" fill="#000"/><path d="M39.584 18.354h2.026a6.608 6.608 0 00.616-2.276h-2.368a13.49 13.49 0 01-.274 2.276" id="Fill-47" fill="#000"/><path d="M75.134 18.963l-7.282 4.271-7.288-4.271v-8.247h1.137v7.596l6.15 3.605 6.146-3.605v-7.596h1.137v8.247zM62.847 9.994s3.03.05 4.391 2.556v7.617c-1.36-2.506-4.391-2.555-4.391-2.555s-.044-7.667 0-7.618zm5.52 2.622c1.376-2.507 4.439-2.555 4.439-2.555.045-.05 0 7.617 0 7.617s-3.063.048-4.439 2.555v-7.617zm-9.912 11.742H45.27v-1.325h1.996v-6.52h9.191v6.52h1.998v1.325zm-22.873-1.037c-4.306 0-7.81-3.504-7.81-7.811 0-4.308 3.504-7.812 7.81-7.812 4.306 0 7.809 3.504 7.809 7.812 0 4.307-3.503 7.811-7.809 7.811zM52.525 3.477v.757c.578.248.985.8.985 1.448 0 .649-.407 1.2-.985 1.447v.92c.868.317 2.435 1.077 3.151 2.62.67 1.446.794 2.697.8 3.382h.618v1.326H46.63v-1.326h.617c.007-.685.13-1.936.8-3.382.715-1.54 2.282-2.303 3.151-2.622v-.919c-.577-.247-.985-.797-.985-1.446 0-.649.408-1.199.985-1.447v-.758H25.19v26.55s.004 1.194.4 3.181l.136-.046c2.844-.972 7.976-2.636 11.374-2.636 3.398 0 4.647.902 7.907.902.375 0 .738.008 1.094.02v-5.961h11.524v6.157c2.31-.07 4.028-.003 6.107.374 2.879.52 4.647 2.393 6.693 2.705 2.046.312 3.849-.139 6.034-.034l1.337.062c.74-2.898.74-4.724.74-4.724V3.477h-26.01z" id="Fill-49" fill="#000"/><path d="M38.722 16.078H36.15v2.276h2.277c.159-.686.262-1.449.295-2.276" id="Fill-51" fill="#000"/><path d="M36.15 22.043c.74-.313 1.452-1.217 1.942-2.552H36.15v2.552z" id="Fill-53" fill="#000"/><path d="M38.275 21.612a6.696 6.696 0 002.65-2.121h-1.641c-.264.817-.604 1.536-1.01 2.121" id="Fill-55" fill="#000"/><mask id="mask-4" fill="#fff"><use xlink:href="#path-3"/></mask><path id="Fill-57" fill="#000" mask="url(#mask-4)" d="M50.634 30.915h2.457v-4.253h-2.457z"/><path d="M50.203 50.986c-.187-.15-.479-.3-.965-.502-.368.195-.63.495-.63.929 0 .524.375.862.96.862.523 0 .883-.308.883-.75 0-.232-.082-.412-.248-.54" id="Fill-59" fill="#000" mask="url(#mask-4)"/><path d="M49.574 49.787c.33-.165.72-.427.72-.839 0-.397-.293-.637-.794-.637-.48 0-.795.263-.795.652 0 .435.517.682.87.824" id="Fill-60" fill="#000" mask="url(#mask-4)"/><path d="M53.732 48.334c-.293 0-.517.233-.66.629-.119.322-.172.75-.172 1.28 0 .503.038.893.105 1.17.135.584.404.832.72.832.314 0 .568-.27.703-.705.098-.322.143-.749.143-1.25 0-.488-.038-.824-.113-1.147-.142-.584-.397-.81-.726-.81" id="Fill-61" fill="#000" mask="url(#mask-4)"/><path d="M57.91 52.859c-1.317 0-1.737-1.536-1.737-2.607 0-1.476.75-2.54 1.746-2.54 1.34 0 1.76 1.476 1.76 2.562 0 1.551-.72 2.585-1.769 2.585zm-4.193 0c-1.319 0-1.738-1.536-1.738-2.607 0-1.476.75-2.54 1.745-2.54 1.34 0 1.76 1.476 1.76 2.562 0 1.551-.719 2.585-1.767 2.585zm-4.233.03c-.86 0-1.767-.427-1.767-1.416 0-.606.405-1.094.958-1.289-.456-.186-.8-.644-.8-1.146 0-.951.883-1.326 1.699-1.326.944 0 1.596.502 1.596 1.236 0 .614-.48.959-.997 1.154.727.3 1.184.659 1.184 1.281 0 .967-1.011 1.506-1.873 1.506zm-2.494-.142h-2.374v-.667h.869v-3.327c-.075.046-.308.195-.51.292a7.126 7.126 0 01-.569.248l-.202-.442 1.506-1.057h.584v4.286h.696v.667zm12.543-11.163v.026H44.219l-11.097 6.954c3.953 4.836 9.872 9.878 18.745 14.129 8.893-4.259 14.817-9.31 18.766-14.154l-11.1-6.955z" id="Fill-62" fill="#000" mask="url(#mask-4)"/><path d="M57.926 48.334c-.293 0-.517.233-.66.629-.12.322-.172.75-.172 1.28 0 .503.037.893.105 1.17.135.584.404.832.72.832.313 0 .568-.27.703-.705.098-.322.142-.749.142-1.25 0-.488-.037-.824-.112-1.147-.142-.584-.397-.81-.726-.81" id="Fill-63" fill="#000" mask="url(#mask-4)"/><path id="Fill-64" fill="#000" mask="url(#mask-4)" d="M43.956 33.907h15.812V32.77H43.956z"/><path d="M47.045 38.954h9.635v-2.303h-9.635v2.303zm-1.137 1.136h11.908v-4.575H45.908v4.575z" id="Fill-65" fill="#000" mask="url(#mask-4)"/><path id="Fill-66" fill="#000" mask="url(#mask-4)" d="M50.634 21.591h2.457v-3.815h-2.457z"/><path id="Fill-67" fill="#000" mask="url(#mask-4)" d="M48.554 21.59h.757v-3.808h-.757z"/><path id="Fill-68" fill="#000" mask="url(#mask-4)" d="M54.413 21.59h.757v-3.808h-.757z"/><path d="M52.584 5.683c0 .377-.323.682-.722.682-.398 0-.721-.305-.721-.682 0-.379.323-.685.721-.685.399 0 .722.306.722.685" id="Fill-69" fill="#000" mask="url(#mask-4)"/><path d="M44.192 37.49l-13.146 8.292c.28.41.573.822.88 1.236l12.266-7.735V37.49z" id="Fill-70" fill="#000" mask="url(#mask-4)"/><path d="M59.532 39.347l12.243 7.74c.308-.415.602-.827.883-1.235l-13.126-8.298v1.793z" id="Fill-71" fill="#000" mask="url(#mask-4)"/><path id="Fill-1" fill="#000" mask="url(#mask-4)" d="M13.036 79.838l-.989 3.07-3.258 8.286-3.175-8.265-1.073-3.09H0v.63l1.704.336.21 2.124v7.55l-.21 2.124L0 92.94v.652h4.773v-.652l-1.682-.337-.231-2.124v-9.21l3.637 9.21 1.136 3.113h1.366l1.073-3.113 3.616-9.21v9.21l-.232 2.124-1.681.337v.652h5.802v-.652l-1.682-.337-.231-2.124v-7.55l.23-2.124 1.683-.336v-.63z"/></g></g></g></g></svg>